<?xml version="1.0" encoding="iso-8859-1"?>
<!-- Uploaded to: SVG Repo, www.svgrepo.com, Generator: SVG Repo Mixer Tools -->
<svg height="800px" width="800px" version="1.1" id="Layer_1" xmlns="http://www.w3.org/2000/svg" xmlns:xlink="http://www.w3.org/1999/xlink" 
	 viewBox="0 0 503.344 503.344" xml:space="preserve">
<g transform="translate(1 1)">
	<path style="fill:#FDCC00;" d="M194.436,149.951c7.554-24.341,29.377-41.967,56.236-41.967s48.682,17.626,56.236,41.967h34.413
		c-7.554-42.807-45.325-75.541-90.649-75.541s-83.095,32.734-90.649,75.541H194.436z"/>
	<g>
		<path style="fill:#FFE100;" d="M334.607,149.951H166.738c-18.466,0-33.574,15.108-33.574,33.574v50.361
			c0,18.466,15.108,33.574,33.574,33.574h41.967c0-23.502,18.466-41.967,41.967-41.967s41.967,18.466,41.967,41.967h41.967
			c18.466,0,33.574-15.108,33.574-33.574v-50.361C368.18,165.059,353.072,149.951,334.607,149.951"/>
		<path style="fill:#FFE100;" d="M494.082,372.377l-26.02-157.797c-4.197-22.662-24.341-39.449-47.003-39.449h-53.718
			c0.839,2.518,0.839,5.875,0.839,8.393v50.361c0,18.466-15.108,33.574-33.574,33.574h-41.967c0,23.502-18.466,41.967-41.967,41.967
			s-41.967-18.466-41.967-41.967h-41.967c-18.466,0-33.574-15.108-33.574-33.574v-50.361c0-2.518,0.839-5.875,0.839-8.393H81.125
			c-22.662,0-42.807,16.787-46.164,39.449L8.102,372.377c-5.036,28.538,17.626,54.557,47.003,54.557h392.813
			C476.456,426.934,498.279,400.915,494.082,372.377"/>
	</g>
	<path style="fill:#00DA6C;" d="M401.754,426.934h45.325c29.377,0,51.2-26.02,46.164-54.557l-6.715-46.164h-50.361
		c-18.466,0-33.574,15.108-33.574,33.574v67.148H401.754z"/>
	<path style="fill:#FFA800;" d="M494.082,372.377l-26.02-157.797c-4.197-22.662-24.341-39.449-47.003-39.449h-25.18
		c22.662,0,42.807,16.787,46.164,39.449l26.859,157.797c5.036,28.538-17.626,54.557-46.164,54.557h25.18
		C476.456,426.934,498.279,400.915,494.082,372.377"/>
	<path style="fill:#00AD55;" d="M494.082,372.377l-7.554-46.164h-25.18l7.554,46.164c5.036,28.538-17.626,54.557-46.164,54.557
		h25.18C476.456,426.934,498.279,400.915,494.082,372.377"/>
	<g>
		<path style="fill:#00DA6C;" d="M66.016,326.213H15.656l-7.554,46.164c-5.036,28.538,17.626,54.557,47.003,54.557H99.59v-67.148
			C99.59,341.321,84.482,326.213,66.016,326.213"/>
		<path style="fill:#00DA6C;" d="M292.639,267.459c0,23.502-18.466,41.967-41.967,41.967s-41.967-18.466-41.967-41.967
			s18.466-41.967,41.967-41.967S292.639,243.957,292.639,267.459"/>
	</g>
	<path style="fill:#FFFFFF;" d="M10.62,372.377l26.02-157.797c3.357-22.662,23.502-39.449,46.164-39.449h25.18
		c-22.662,0-42.807,16.787-46.164,39.449L35.8,372.377c-5.036,28.538,16.787,54.557,46.164,54.557h-25.18
		C27.407,426.934,5.584,400.915,10.62,372.377"/>
	<path d="M342.161,158.344L342.161,158.344h-34.413c-3.357,0-6.715-2.518-8.393-5.875c-6.715-20.984-26.02-36.092-48.682-36.092
		c-21.823,0-41.967,15.108-48.682,36.092c-0.839,3.357-4.197,5.875-8.393,5.875h-34.413c-2.518,0-5.036-0.839-6.715-3.357
		c-1.679-1.679-2.518-4.197-1.679-6.715c8.393-47.843,50.361-82.256,99.043-82.256c47.843,0,88.97,33.574,99.043,80.577
		c0,0.839,0.839,1.679,0.839,3.357C350.554,154.987,346.357,158.344,342.161,158.344z M313.623,141.557h17.626
		c-10.911-34.413-42.807-58.754-79.738-58.754s-69.666,24.341-79.738,58.754H189.4c10.072-25.18,35.252-41.967,62.111-41.967
		C278.37,99.59,302.711,116.377,313.623,141.557z"/>
	<path d="M250.672,317.82c-27.698,0-50.361-22.662-50.361-50.361c0-27.698,22.662-50.361,50.361-50.361s50.361,22.662,50.361,50.361
		C301.033,295.157,278.37,317.82,250.672,317.82z M250.672,233.885c-18.466,0-33.574,15.108-33.574,33.574
		s15.108,33.574,33.574,33.574s33.574-15.108,33.574-33.574S269.138,233.885,250.672,233.885z"/>
	<path d="M334.607,275.852h-41.967c-5.036,0-8.393-3.357-8.393-8.393c0-18.466-15.108-33.574-33.574-33.574
		s-33.574,15.108-33.574,33.574c0,5.036-3.357,8.393-8.393,8.393h-41.967c-23.502,0-41.967-18.466-41.967-41.967v-50.361
		c0-23.502,18.466-41.967,41.967-41.967h167.869c23.502,0,41.967,18.466,41.967,41.967v50.361
		C376.574,257.387,358.108,275.852,334.607,275.852z M301.033,259.066h33.574c14.269,0,25.18-10.911,25.18-25.18v-50.361
		c0-14.269-10.911-25.18-25.18-25.18H166.738c-14.269,0-25.18,10.911-25.18,25.18v50.361c0,14.269,10.911,25.18,25.18,25.18h34.413
		c4.197-23.502,24.341-41.967,49.521-41.967S296.836,235.564,301.033,259.066z"/>
	<path d="M447.079,435.328H55.105c-15.948,0-31.895-7.554-42.807-19.305c-10.911-12.59-15.108-28.538-12.59-45.325l26.02-157.797
		c5.036-26.859,27.698-46.164,55.397-46.164h53.718c2.518,0,5.036,0.839,6.715,3.357c1.679,2.518,2.518,5.036,1.679,7.554
		c-0.839,1.679-1.679,4.197-1.679,5.875v50.361c0,14.269,10.911,25.18,25.18,25.18h41.967c5.036,0,8.393,3.357,8.393,8.393
		c0,18.466,15.108,33.574,33.574,33.574s33.574-15.108,33.574-33.574c0-5.036,3.357-8.393,8.393-8.393h41.967
		c14.269,0,25.18-10.911,25.18-25.18v-50.361c0-1.679,0-4.197-0.839-5.875c-0.839-2.518,0-5.036,1.679-7.554
		c1.679-1.679,4.197-3.357,6.715-3.357h53.718c27.698,0,50.361,19.305,54.557,46.164l26.02,157.797
		c2.518,15.948-1.679,32.734-12.59,45.325C478.974,427.774,463.866,435.328,447.079,435.328z M81.125,183.525
		c-19.305,0-35.252,13.43-38.61,32.734l-26.02,156.957c-1.679,10.911,1.679,22.662,8.393,31.056
		c7.554,9.233,18.466,14.269,30.216,14.269h392.813c11.751,0,21.823-5.036,29.377-13.429c7.554-8.393,10.911-20.144,8.393-31.056
		l-26.02-157.797c-3.357-18.466-19.305-32.734-38.61-32.734h-44.485v50.361c0,23.502-18.466,41.967-41.967,41.967h-33.574
		c-4.197,23.502-24.341,41.967-49.521,41.967s-45.325-18.466-49.521-41.967h-35.252c-23.502,0-41.967-18.466-41.967-41.967v-50.361
		L81.125,183.525L81.125,183.525z"/>
	<path d="M259.066,267.459c0,5.036-3.357,8.393-8.393,8.393s-8.393-3.357-8.393-8.393s3.357-8.393,8.393-8.393
		S259.066,262.423,259.066,267.459"/>
	<path d="M447.079,435.328h-45.325c-5.036,0-8.393-3.357-8.393-8.393v-67.148c0-23.502,18.466-41.967,41.967-41.967h50.361
		c4.197,0,7.554,3.357,8.393,6.715l7.554,46.164c2.518,15.948-1.679,32.734-12.59,45.325
		C478.974,427.774,463.866,435.328,447.079,435.328z M410.148,418.541h36.931c11.751,0,21.823-5.036,29.377-13.429
		c7.554-8.393,10.911-20.144,8.393-31.056l-5.875-39.449h-43.646c-14.269,0-25.18,10.911-25.18,25.18V418.541z"/>
	<path d="M99.59,435.328H55.105c-15.948,0-31.895-7.554-42.807-19.305c-10.911-12.59-15.108-28.538-12.59-45.325l7.554-46.164
		c0.839-3.357,4.197-6.715,8.393-6.715h50.361c23.502,0,41.967,18.466,41.967,41.967v67.148
		C107.984,431.97,104.626,435.328,99.59,435.328z M23.21,334.607l-6.715,38.61c-1.679,10.911,1.679,22.662,8.393,31.056
		c7.554,9.233,18.466,14.269,30.216,14.269h36.092v-58.754c0-14.269-10.911-25.18-25.18-25.18H23.21z"/>
	<path d="M250.672,435.328c-5.036,0-8.393-3.357-8.393-8.393V309.426c0-5.036,3.357-8.393,8.393-8.393s8.393,3.357,8.393,8.393
		v117.508C259.066,431.97,255.708,435.328,250.672,435.328z"/>
</g>
</svg>