<?xml version="1.0" ?>

<!DOCTYPE svg  PUBLIC '-//W3C//DTD SVG 1.1//EN'  'http://www.w3.org/Graphics/SVG/1.1/DTD/svg11.dtd'>

<!-- Uploaded to: SVG Repo, www.svgrepo.com, Generator: SVG Repo Mixer Tools -->
<svg fill="#000000" width="800px" height="800px" viewBox="0 0 1069 1069" style="fill-rule:evenodd;clip-rule:evenodd;stroke-linejoin:round;stroke-miterlimit:2;" version="1.1" xml:space="preserve" xmlns="http://www.w3.org/2000/svg" xmlns:serif="http://www.serif.com/" xmlns:xlink="http://www.w3.org/1999/xlink">

<rect height="1066.67" id="Fan-alt1" style="fill:none;" width="1066.67" x="0.313" y="0.592"/>

<g>

<path d="M502.397,752.197l-0,62.978c-0,17.247 14.002,31.25 31.25,31.25c17.247,-0 31.25,-14.003 31.25,-31.25l-0,-62.978c170.582,-15.786 304.322,-159.465 304.322,-334.134c-0,-185.207 -150.365,-335.572 -335.572,-335.572c-185.207,0 -335.572,150.365 -335.572,335.572c-0,174.669 133.74,318.348 304.322,334.134Zm31.25,-607.206c150.712,0 273.072,122.36 273.072,273.072c-0,150.713 -122.36,273.072 -273.072,273.072c-150.713,0 -273.072,-122.359 -273.072,-273.072c-0,-150.712 122.359,-273.072 273.072,-273.072Z"/>

<path d="M313.732,925.466l-0,28.642c-0,17.259 13.991,31.25 31.25,31.25l377.33,0c17.259,0 31.25,-13.991 31.25,-31.25l-0,-28.642c0,-30.825 -13.516,-60.549 -38.19,-82.346c-23.2,-20.495 -54.582,-32.238 -87.392,-32.238l-188.666,0c-32.81,0 -64.193,11.743 -87.393,32.238c-24.673,21.797 -38.189,51.521 -38.189,82.346l-0,-0Zm377.246,-2.608l-314.663,0c0.765,-12.409 6.975,-24.054 16.985,-32.898c12.182,-10.761 28.786,-16.577 46.012,-16.578c0.002,0 188.667,0 188.667,0c17.229,0.001 33.833,5.817 46.014,16.578c10.011,8.844 16.221,20.489 16.985,32.898Zm-236.36,-490.062c-2.136,0.207 -4.291,0.307 -6.456,0.307l-0.04,0c-18.63,0 -36.496,-7.4 -49.67,-20.573c-2.269,-2.27 -4.367,-4.678 -6.284,-7.204c-6.149,-8.104 -15.858,-12.707 -26.024,-12.339c-10.165,0.367 -19.516,5.66 -25.064,14.187c-13.91,21.38 -21.478,46.497 -21.478,72.394l0,0.04c-0,35.206 13.985,68.97 38.88,93.864c24.894,24.894 58.657,38.88 93.863,38.88l0.041,-0c35.205,-0 68.969,-13.986 93.863,-38.88c24.894,-24.894 38.88,-58.658 38.88,-93.864l-0,-0.027c1.206,1.692 2.329,3.451 3.376,5.264c0.007,0.012 0.014,0.024 0.021,0.035c9.315,16.134 11.839,35.307 7.017,53.302c-0.831,3.1 -1.867,6.122 -3.097,9.045c-3.943,9.377 -3.075,20.086 2.326,28.706c5.402,8.62 14.661,14.072 24.819,14.613c25.471,1.357 51.006,-4.648 73.434,-17.596c0.012,-0.007 0.023,-0.014 0.035,-0.021c30.489,-17.603 52.737,-46.596 61.849,-80.602c9.112,-34.006 4.341,-70.239 -13.261,-100.728c-0.007,-0.012 -0.014,-0.024 -0.021,-0.035c-17.603,-30.489 -46.596,-52.737 -80.602,-61.849c-34.006,-9.112 -70.239,-4.342 -100.728,13.261l-0.917,0.541c0.978,-2.206 2.08,-4.368 3.299,-6.478c0.006,-0.012 0.013,-0.024 0.02,-0.036c9.315,-16.133 24.657,-27.906 42.652,-32.728c3.1,-0.83 6.235,-1.443 9.381,-1.84c10.092,-1.274 18.933,-7.38 23.698,-16.368c4.764,-8.987 4.856,-19.731 0.245,-28.799c-11.56,-22.737 -29.528,-41.849 -51.956,-54.798c-0.011,-0.007 -0.023,-0.014 -0.035,-0.02c-30.489,-17.603 -66.722,-22.373 -100.728,-13.262c-34.006,9.112 -62.999,31.36 -80.602,61.849c-0.007,0.012 -0.014,0.023 -0.021,0.035c-17.602,30.489 -22.373,66.722 -13.261,100.728c9.112,34.006 31.36,63 61.849,80.603l0.697,0.393Zm67.687,40.165c0.219,2.186 0.324,4.391 0.324,6.607c-0,0.013 -0,0.027 -0,0.04c-0,18.63 -7.401,36.497 -20.574,49.67c-13.173,13.173 -31.04,20.574 -49.669,20.574l-0.041,-0c-18.63,-0 -36.496,-7.401 -49.669,-20.574c-13.173,-13.173 -20.574,-31.04 -20.574,-49.67l0.028,-1.578c19.916,11.418 42.636,17.573 65.992,17.573l0.04,0c26.609,0 52.394,-7.989 74.143,-22.642Zm138.124,46.607c-0.069,-22.957 -6.099,-45.711 -17.777,-65.938c-0.006,-0.011 -0.013,-0.023 -0.02,-0.035c-13.304,-23.043 -33.115,-41.379 -56.68,-52.888c1.784,-1.283 3.641,-2.476 5.56,-3.584c0.011,-0.007 0.023,-0.013 0.035,-0.02c16.134,-9.315 35.307,-11.839 53.302,-7.017c17.994,4.821 33.337,16.594 42.652,32.728c0.006,0.011 0.013,0.023 0.02,0.035c9.315,16.134 11.839,35.307 7.017,53.302c-4.821,17.994 -16.594,33.337 -32.728,42.652l-1.381,0.765Zm-103.642,-262.178c-19.846,11.538 -36.537,28.137 -48.215,48.363c-0.007,0.012 -0.013,0.024 -0.02,0.036c-13.304,23.043 -19.278,49.368 -17.462,75.531c-2.003,-0.904 -3.965,-1.916 -5.884,-3.024c-0.012,-0.007 -0.023,-0.013 -0.035,-0.02c-16.134,-9.315 -27.907,-24.657 -32.728,-42.652c-4.822,-17.995 -2.298,-37.168 7.017,-53.302c0.007,-0.012 0.014,-0.023 0.02,-0.035c9.315,-16.134 24.658,-27.906 42.652,-32.728c17.995,-4.822 37.168,-2.298 53.302,7.017l1.353,0.814Z" style="fill-opacity:0.5;"/>

</g>

</svg>