<?xml version="1.0" encoding="iso-8859-1"?>
<!-- Uploaded to: SVG Repo, www.svgrepo.com, Generator: SVG Repo Mixer Tools -->
<svg height="800px" width="800px" version="1.1" id="Layer_1" xmlns="http://www.w3.org/2000/svg" xmlns:xlink="http://www.w3.org/1999/xlink" 
	 viewBox="0 0 512 512" xml:space="preserve">
<g transform="translate(1 1)">
	<path style="fill:#FDCC00;" d="M206.36,19.48l-2.56,5.12L255,135.533L306.2,24.6l-2.56-5.12
		c-3.413-7.68-11.093-11.947-18.773-11.947h-58.88C217.453,7.533,209.773,11.8,206.36,19.48"/>
	<g>
		<path style="fill:#FFE100;" d="M383,502.467V161.133c0,0,2.56-60.587,25.6-68.267c0,0,3.413-18.773-76.8-42.667l-25.6-25.6l0,0
			L255,135.533L203.8,24.6l-25.6,25.6c-80.213,23.893-76.8,42.667-76.8,42.667c23.893,7.68,25.6,68.267,25.6,68.267v341.333H383z"/>
		<path style="fill:#FFE100;" d="M127,161.133c0,0-1.707-59.733-24.747-68.267H101.4L7.533,212.333L67.267,255L127,223.427V161.133z
			"/>
		<path style="fill:#FFE100;" d="M383,161.133c0,0,1.707-59.733,24.747-68.267h0.853l93.867,119.467L442.733,255L383,223.427
			V161.133z"/>
		<polygon style="fill:#FFE100;" points="238.787,100.547 203.8,118.467 178.2,50.2 203.8,24.6 		"/>
		<polygon style="fill:#FFE100;" points="271.213,100.547 306.2,118.467 331.8,50.2 306.2,24.6 		"/>
	</g>
	<g>
		<path style="fill:#FFFFFF;" d="M144.067,229.4v273.067H127v-281.6h8.533C139.8,220.867,144.067,225.133,144.067,229.4"/>
		<path style="fill:#FFFFFF;" d="M7.533,212.333L101.4,92.867h0.853c5.12,1.707,9.387,6.827,12.8,12.8L24.6,220.867L7.533,212.333z"
			/>
	</g>
	<g>
		<path style="fill:#FFA800;" d="M365.933,229.4v273.067H383v-281.6h-8.533C370.2,220.867,365.933,225.133,365.933,229.4"/>
		<path style="fill:#FFA800;" d="M502.467,212.333L408.6,92.867h-0.853c-5.12,1.707-9.387,6.827-12.8,12.8l90.453,115.2
			L502.467,212.333z"/>
	</g>
	<g>
		<polygon style="fill:#63D3FD;" points="161.133,502.467 212.333,502.467 212.333,468.333 161.133,468.333 		"/>
		<polygon style="fill:#63D3FD;" points="348.867,237.933 323.267,255 297.667,237.933 297.667,186.733 348.867,186.733 		"/>
	</g>
	<path d="M263.533,169.667c0,5.12-3.413,8.533-8.533,8.533s-8.533-3.413-8.533-8.533c0-5.12,3.413-8.533,8.533-8.533
		S263.533,164.547,263.533,169.667"/>
	<path d="M263.533,203.8c0,5.12-3.413,8.533-8.533,8.533s-8.533-3.413-8.533-8.533c0-5.12,3.413-8.533,8.533-8.533
		S263.533,198.68,263.533,203.8"/>
	<path d="M383,511H127c-5.12,0-8.533-3.413-8.533-8.533V161.133c-0.853-21.333-7.68-56.32-19.627-60.587
		c-2.56-0.853-5.12-3.413-5.973-6.827c-1.707-9.387,5.973-29.013,81.067-52.053l23.893-23.893c1.707-0.853,5.12-1.707,7.68-1.707
		c2.56,0.853,5.12,2.56,5.973,5.12L255,115.053l43.52-93.867l0,0c2.56-5.12,10.24-6.827,14.507-2.56L336.92,42.52
		c74.24,23.04,82.773,41.813,81.067,52.053c-0.853,3.413-2.56,5.12-5.973,6.827c-11.947,4.267-18.773,38.4-19.627,60.587V503.32
		C391.533,507.587,388.12,511,383,511z M135.533,493.933h238.933v-332.8c0-10.24,3.413-55.467,23.04-71.68
		c-5.12-5.973-21.333-17.067-68.267-31.573c-1.707,0-2.56-0.853-3.413-2.56L308.76,38.253l-46.08,99.84
		c-1.707,4.267-4.267,5.973-7.68,5.973s-5.973-1.707-7.68-5.12l-46.08-99.84l-17.067,17.067c-0.853,0.853-2.56,1.707-3.413,2.56
		c-46.933,13.653-62.293,25.6-68.267,31.573c19.627,16.213,23.04,61.44,23.04,71.68L135.533,493.933z"/>
	<path d="M67.267,263.533c-1.707,0-3.413-0.853-5.12-1.707L2.413,219.16C0.707,218.307-1,215.747-1,213.187s0-4.267,1.707-6.827
		L94.573,86.893c2.56-2.56,6.827-3.413,10.24-1.707c26.453,10.24,29.867,64.853,30.72,75.947v63.147c0,3.413-1.707,5.973-4.267,7.68
		l-59.733,31.573C69.827,263.533,68.973,263.533,67.267,263.533z M19.48,210.627l47.787,34.133l50.347-26.453v-57.173
		c-0.853-18.773-5.973-46.933-15.36-57.173L19.48,210.627z"/>
	<path d="M442.733,263.533c-1.707,0-2.56,0-4.267-0.853l-59.733-31.573c-2.56-1.707-4.267-4.267-4.267-7.68v-62.293
		c0-11.093,3.413-65.707,30.72-75.947c3.413-1.707,7.68,0,10.24,2.56l93.867,119.467C511,208.92,511,211.48,511,214.04
		s-1.707,4.267-3.413,5.973l-59.733,42.667C446.147,262.68,444.44,263.533,442.733,263.533z M391.533,218.307l50.347,26.453
		l47.787-34.133L406.04,103.96c-9.387,10.24-14.507,38.4-15.36,57.173L391.533,218.307z"/>
	<path d="M255,144.067c-3.413,0-5.973-1.707-7.68-5.12l-51.2-110.933c-0.853-2.56-0.853-5.12,0-7.68l2.56-5.12
		C203.8,4.973,214.04-1,225.133-1h58.88c11.093,0,21.333,5.973,26.453,16.213l2.56,5.12c0.853,2.56,0.853,5.12,0,7.68l-51.2,110.933
		C260.973,142.36,258.413,144.067,255,144.067z M213.187,24.6L255,115.053L296.813,24.6l-0.853-1.707
		c-2.56-4.267-6.827-6.827-11.093-6.827h-58.88c-5.12,0-9.387,2.56-11.093,6.827L213.187,24.6z"/>
	<path d="M203.8,127c-0.853,0-1.707,0-3.413-0.853c-2.56-0.853-4.267-2.56-5.12-5.12l-25.6-68.267c-0.853-3.413,0-6.827,1.707-9.387
		l25.6-25.6c2.56-0.853,5.973-1.707,8.533-1.707c2.56,0.853,5.12,2.56,5.973,5.12l34.987,75.947c1.707,4.267,0,9.387-4.267,11.093
		l-34.987,17.92C206.36,127,205.507,127,203.8,127z M188.44,52.76l20.48,54.613l19.627-9.387L202.093,39.96L188.44,52.76z"/>
	<path d="M306.2,127c-1.707,0-2.56,0-3.413-0.853l-34.987-17.92c-4.267-1.707-5.973-6.827-4.267-11.093l34.987-75.947
		c0.853-2.56,3.413-4.267,5.973-5.12c2.56-0.853,5.973,0,7.68,2.56l25.6,25.6c2.56,2.56,3.413,5.973,1.707,9.387l-25.6,68.267
		c-0.853,2.56-2.56,4.267-5.12,5.12C308.76,127,307.053,127,306.2,127z M282.307,97.133l19.627,9.387l20.48-54.613l-12.8-12.8
		L282.307,97.133z"/>
	<path d="M212.333,511h-51.2c-5.12,0-8.533-3.413-8.533-8.533v-34.133c0-5.12,3.413-8.533,8.533-8.533h51.2
		c5.12,0,8.533,3.413,8.533,8.533v34.133C220.867,507.587,217.453,511,212.333,511z M169.667,493.933H203.8v-17.067h-34.133V493.933
		z"/>
	<path d="M323.267,263.533c-1.707,0-3.413-0.853-5.12-1.707l-25.6-17.067c-1.707-1.707-3.413-4.267-3.413-6.827v-51.2
		c0-5.12,3.413-8.533,8.533-8.533h51.2c5.12,0,8.533,3.413,8.533,8.533v51.2c0,2.56-1.707,5.12-3.413,6.827l-25.6,17.067
		C326.68,262.68,324.973,263.533,323.267,263.533z M306.2,233.667l17.067,11.093l17.067-11.093v-38.4H306.2V233.667z"/>
</g>
</svg>