<?xml version="1.0" encoding="iso-8859-1"?>
<!-- Uploaded to: SVG Repo, www.svgrepo.com, Generator: SVG Repo Mixer Tools -->
<svg height="800px" width="800px" version="1.1" id="Layer_1" xmlns="http://www.w3.org/2000/svg" xmlns:xlink="http://www.w3.org/1999/xlink" 
	 viewBox="0 0 512.002 512.002" xml:space="preserve">
<g>
	<polygon style="fill:#009FD3;" points="256.001,84.569 222.012,104.196 202.666,32.004 128.001,32.004 10.669,149.335 
		81.092,219.76 128.001,172.852 128.001,416.005 256.001,416.005 256.001,330.671 341.336,330.671 341.336,416.005 384.003,416.005 
		384.003,172.854 430.911,219.76 501.335,149.335 384.003,32.004 309.334,32.004 289.991,104.198 	"/>
	<polygon style="fill:#FF6B39;" points="213.333,10.672 256.001,84.569 298.668,10.672 	"/>
	<g>
		<polygon style="fill:#FF2C47;" points="256.001,84.569 213.333,10.672 202.666,32.004 222.012,104.196 		"/>
		<polygon style="fill:#FF2C47;" points="298.668,10.672 256.001,84.569 289.991,104.198 309.332,32.004 		"/>
	</g>
	<polygon style="fill:#FFD72E;" points="341.336,330.671 256.001,330.671 341.336,416.005 	"/>
	<polygon style="fill:#FF6B39;" points="341.336,416.005 256.001,330.671 256.001,416.005 290.674,416.005 	"/>
</g>
<g>
	<path style="fill:#000003;" d="M508.877,141.792L391.544,24.462c-0.033-0.034-0.07-0.063-0.107-0.096
		c-0.217-0.211-0.439-0.416-0.673-0.608c-0.133-0.11-0.273-0.205-0.409-0.306c-0.144-0.107-0.282-0.217-0.429-0.316
		c-0.158-0.106-0.321-0.196-0.481-0.292c-0.138-0.082-0.273-0.169-0.415-0.245c-0.162-0.087-0.331-0.161-0.498-0.24
		c-0.148-0.069-0.295-0.145-0.448-0.208c-0.162-0.067-0.327-0.121-0.49-0.179c-0.164-0.06-0.327-0.123-0.496-0.174
		c-0.164-0.049-0.33-0.086-0.496-0.127c-0.171-0.044-0.341-0.092-0.516-0.127c-0.19-0.037-0.383-0.061-0.573-0.087
		c-0.155-0.022-0.304-0.051-0.461-0.066c-0.35-0.034-0.7-0.053-1.052-0.053h-68.076L308.26,6.005
		c-0.006-0.012-0.013-0.022-0.018-0.034L308.207,5.9c-0.013-0.028-0.033-0.052-0.046-0.08c-0.19-0.37-0.404-0.729-0.638-1.076
		c-0.054-0.081-0.107-0.161-0.162-0.24c-0.511-0.72-1.113-1.381-1.806-1.968c-0.085-0.073-0.175-0.141-0.262-0.211
		c-0.262-0.207-0.535-0.403-0.821-0.589c-0.105-0.067-0.206-0.137-0.313-0.202c-0.054-0.033-0.105-0.07-0.158-0.103
		c-0.33-0.19-0.662-0.358-1.002-0.509c-0.027-0.012-0.057-0.021-0.083-0.033c-0.385-0.167-0.778-0.306-1.173-0.426
		c-0.102-0.031-0.204-0.058-0.306-0.085c-0.379-0.102-0.761-0.185-1.143-0.244c-0.061-0.01-0.116-0.022-0.177-0.031
		c-0.454-0.063-0.907-0.093-1.36-0.096c-0.029,0-0.059-0.006-0.087-0.006h-85.335c-0.031,0-0.062,0.006-0.093,0.006
		c-0.45,0.003-0.902,0.034-1.351,0.095c-0.064,0.009-0.125,0.022-0.189,0.033c-0.38,0.059-0.757,0.141-1.133,0.242
		c-0.105,0.028-0.208,0.055-0.313,0.086c-0.393,0.118-0.782,0.257-1.166,0.423c-0.029,0.013-0.06,0.022-0.089,0.035
		c-0.338,0.15-0.673,0.319-1.001,0.508c-0.055,0.032-0.106,0.07-0.16,0.105c-0.106,0.063-0.205,0.132-0.307,0.198
		c-0.288,0.186-0.562,0.382-0.826,0.591c-0.087,0.07-0.176,0.137-0.261,0.209c-0.692,0.586-1.296,1.247-1.805,1.967
		c-0.057,0.08-0.11,0.161-0.165,0.243c-0.23,0.345-0.443,0.698-0.629,1.065c-0.016,0.031-0.037,0.058-0.053,0.089l-0.039,0.081
		c-0.004,0.006-0.007,0.014-0.011,0.02l-7.668,15.335h-68.074c-0.052,0-0.103,0.006-0.156,0.007
		c-0.297,0.004-0.594,0.016-0.891,0.045c-0.18,0.018-0.355,0.051-0.532,0.077c-0.166,0.025-0.334,0.044-0.499,0.076
		c-0.195,0.038-0.382,0.091-0.572,0.14c-0.148,0.037-0.294,0.069-0.441,0.113c-0.185,0.055-0.364,0.125-0.544,0.19
		c-0.147,0.053-0.297,0.101-0.442,0.161c-0.167,0.069-0.331,0.151-0.493,0.228c-0.153,0.073-0.306,0.14-0.454,0.219
		c-0.156,0.083-0.304,0.178-0.454,0.268c-0.148,0.089-0.299,0.173-0.444,0.269c-0.16,0.108-0.313,0.227-0.467,0.342
		c-0.124,0.094-0.252,0.18-0.373,0.281c-0.239,0.195-0.465,0.402-0.685,0.618c-0.031,0.031-0.067,0.057-0.098,0.089L3.124,141.784
		c-4.165,4.165-4.165,10.919,0,15.085l70.422,70.425c0.521,0.521,1.083,0.976,1.674,1.367c0.083,0.055,0.173,0.1,0.258,0.154
		c0.377,0.233,0.763,0.437,1.158,0.62c1.042,0.478,2.14,0.785,3.259,0.911c0.397,0.045,0.795,0.074,1.194,0.074
		c0.341,0,0.683-0.016,1.022-0.049c1.483-0.142,2.935-0.604,4.265-1.364c0.805-0.461,1.569-1.023,2.256-1.711
		c0.003-0.003,0.006-0.007,0.01-0.011l28.693-28.69l0.001,217.411c0,2.829,1.124,5.542,3.124,7.542c2.001,2,4.714,3.124,7.542,3.124
		h128h85.326c0.004,0,0.009,0,0.011,0c0.004,0,0.009,0,0.011,0h42.654c5.889,0,10.667-4.775,10.667-10.667V198.604l28.689,28.688
		c0.004,0.003,0.006,0.007,0.011,0.011c1.563,1.562,3.488,2.539,5.504,2.929c0.673,0.13,1.356,0.195,2.037,0.195
		c2.732,0,5.46-1.042,7.543-3.124l70.422-70.425C513.044,152.712,513.044,145.957,508.877,141.792z M280.193,21.339l-24.192,41.898
		l-24.193-41.898C231.809,21.339,280.193,21.339,280.193,21.339z M297.968,33.217l-14.682,54.791l-12.715-7.342L297.968,33.217z
		 M241.431,80.666l-12.714,7.343l-14.682-54.79L241.431,80.666z M266.668,405.338v-30.642v-18.274l48.916,48.916L266.668,405.338
		L266.668,405.338z M330.67,390.254l-48.916-48.916h48.916V390.254z M430.911,204.675l-39.362-39.359
		c-0.25-0.251-0.512-0.489-0.787-0.713c-0.118-0.098-0.245-0.183-0.369-0.275c-0.155-0.116-0.306-0.237-0.469-0.345
		c-0.15-0.101-0.308-0.189-0.463-0.282c-0.144-0.086-0.284-0.176-0.431-0.255c-0.16-0.085-0.325-0.158-0.487-0.235
		c-0.153-0.071-0.302-0.148-0.459-0.212c-0.158-0.066-0.321-0.119-0.483-0.177c-0.166-0.06-0.331-0.124-0.502-0.176
		c-0.16-0.049-0.325-0.085-0.487-0.126c-0.175-0.044-0.346-0.093-0.525-0.128c-0.188-0.037-0.377-0.06-0.564-0.086
		c-0.157-0.022-0.308-0.051-0.467-0.067c-0.348-0.034-0.695-0.052-1.044-0.052c-0.002,0-0.006,0-0.009,0
		c-0.352,0-0.702,0.019-1.052,0.053c-0.158,0.016-0.313,0.045-0.468,0.067c-0.188,0.027-0.377,0.049-0.564,0.086
		c-0.177,0.035-0.348,0.084-0.521,0.127c-0.164,0.042-0.33,0.078-0.492,0.127c-0.171,0.051-0.334,0.115-0.5,0.175
		c-0.162,0.058-0.325,0.112-0.485,0.178c-0.155,0.065-0.304,0.14-0.454,0.211c-0.164,0.078-0.332,0.15-0.492,0.237
		c-0.144,0.077-0.282,0.164-0.421,0.247c-0.158,0.095-0.319,0.185-0.475,0.289c-0.153,0.103-0.295,0.218-0.444,0.327
		c-0.131,0.097-0.267,0.189-0.394,0.293c-0.269,0.222-0.527,0.454-0.775,0.701c-0.002,0.002-0.004,0.003-0.006,0.005
		c-0.006,0.006-0.011,0.013-0.017,0.019c-0.242,0.243-0.47,0.497-0.688,0.762c-0.105,0.127-0.196,0.261-0.293,0.391
		c-0.11,0.148-0.225,0.292-0.327,0.447c-0.105,0.155-0.196,0.316-0.289,0.475c-0.083,0.14-0.171,0.276-0.247,0.42
		c-0.087,0.161-0.16,0.329-0.238,0.494c-0.07,0.15-0.146,0.298-0.21,0.452c-0.067,0.16-0.121,0.324-0.179,0.487
		c-0.059,0.165-0.123,0.329-0.173,0.498c-0.05,0.163-0.085,0.331-0.127,0.496c-0.044,0.172-0.092,0.34-0.127,0.515
		c-0.037,0.194-0.061,0.389-0.09,0.583c-0.021,0.149-0.048,0.297-0.064,0.448c-0.033,0.351-0.052,0.704-0.052,1.057V405.34h-21.333
		v-74.667c0-5.891-4.775-10.667-10.667-10.667h-74.668v-51.974c0-5.891-4.775-10.667-10.667-10.667
		c-5.891,0-10.667,4.775-10.667,10.667v62.641v44.025v30.642H138.668l0.002-158.377c0-0.004,0-0.009,0-0.013v-74.096
		c0-0.002,0-0.004,0-0.005v-32.567c0-5.891-4.777-10.667-10.667-10.667c-5.89,0-10.667,4.775-10.667,10.667v28.151l-36.244,36.242
		l-55.338-55.34L132.42,42.672h62.063l17.227,64.287c0.025,0.092,0.059,0.179,0.085,0.27c0.048,0.163,0.096,0.326,0.153,0.489
		c0.068,0.197,0.148,0.387,0.227,0.578c0.044,0.106,0.081,0.211,0.129,0.316c0.14,0.309,0.293,0.609,0.461,0.899
		c0.004,0.007,0.007,0.016,0.012,0.022c0.011,0.018,0.025,0.033,0.034,0.051c0.213,0.366,0.45,0.713,0.702,1.046
		c0.043,0.057,0.083,0.115,0.127,0.171c0.25,0.316,0.516,0.614,0.798,0.897c0.081,0.082,0.163,0.16,0.246,0.239
		c0.266,0.251,0.54,0.492,0.828,0.714c0.082,0.063,0.166,0.121,0.25,0.18c0.262,0.19,0.533,0.366,0.813,0.532
		c0.105,0.062,0.207,0.125,0.314,0.182c0.33,0.181,0.669,0.345,1.015,0.491c0.09,0.037,0.179,0.068,0.269,0.103
		c0.331,0.128,0.667,0.241,1.01,0.336c0.054,0.015,0.108,0.034,0.162,0.048c0.387,0.1,0.783,0.174,1.182,0.23
		c0.087,0.013,0.175,0.022,0.263,0.033c0.402,0.046,0.806,0.079,1.216,0.079c0.005,0,0.012,0.001,0.017,0.001
		c0.963,0,1.933-0.141,2.882-0.41c0.352-0.099,0.693-0.214,1.027-0.346c0.126-0.049,0.247-0.109,0.373-0.163
		c0.292-0.129,0.577-0.269,0.853-0.42c0.063-0.034,0.127-0.058,0.189-0.093l17.988-10.388v88.191
		c0,5.891,4.775,10.667,10.667,10.667c5.891,0,10.667-4.775,10.667-10.667v-88.191l17.989,10.388
		c0.063,0.036,0.127,0.059,0.19,0.093c0.275,0.151,0.558,0.29,0.848,0.418c0.127,0.057,0.252,0.115,0.379,0.165
		c0.325,0.128,0.658,0.24,1.002,0.337c0.958,0.273,1.934,0.417,2.904,0.417c0.006,0,0.013-0.001,0.017-0.001
		c0.411,0,0.815-0.032,1.217-0.079c0.087-0.011,0.175-0.02,0.262-0.033c0.4-0.057,0.794-0.131,1.181-0.23
		c0.057-0.015,0.111-0.034,0.166-0.049c0.341-0.094,0.677-0.207,1.006-0.334c0.09-0.035,0.181-0.067,0.271-0.105
		c0.346-0.145,0.684-0.308,1.012-0.489c0.109-0.059,0.212-0.123,0.319-0.186c0.275-0.163,0.544-0.338,0.804-0.526
		c0.087-0.064,0.177-0.125,0.265-0.192c0.284-0.219,0.555-0.457,0.817-0.704c0.085-0.08,0.169-0.16,0.252-0.243
		c0.279-0.283,0.546-0.579,0.794-0.894c0.046-0.058,0.087-0.117,0.131-0.176c0.25-0.331,0.485-0.675,0.698-1.039
		c0.011-0.019,0.025-0.035,0.035-0.054c0.006-0.009,0.009-0.017,0.013-0.025c0.166-0.289,0.321-0.589,0.461-0.896
		c0.048-0.107,0.085-0.214,0.131-0.322c0.079-0.189,0.157-0.378,0.225-0.574c0.057-0.162,0.105-0.325,0.153-0.489
		c0.027-0.091,0.061-0.178,0.085-0.27l17.224-64.287h55.816V69.89c0,5.891,4.775,10.667,10.667,10.667
		c5.889,0,10.667-4.775,10.667-10.667V57.755l91.582,91.58L430.911,204.675z"/>
	<path style="fill:#000003;" d="M362.67,490.669l-213.335-0.002c-5.89,0-10.667,4.776-10.667,10.667
		c0,5.891,4.777,10.667,10.667,10.667l213.335,0.002c5.889,0,10.667-4.777,10.667-10.667
		C373.336,495.444,368.56,490.669,362.67,490.669z"/>
	<path style="fill:#000003;" d="M256.001,215.766c-5.891,0-10.667,4.775-10.667,10.667v6.399c0,5.891,4.775,10.667,10.667,10.667
		c5.891,0,10.667-4.775,10.667-10.667v-6.399C266.668,220.542,261.894,215.766,256.001,215.766z"/>
	<path style="fill:#000003;" d="M128.003,88.021c-5.89,0-10.667,4.775-10.667,10.667v6.398c0,5.891,4.777,10.667,10.667,10.667
		c5.89,0,10.667-4.775,10.667-10.667v-6.398C138.67,92.796,133.894,88.021,128.003,88.021z"/>
	<path style="fill:#000003;" d="M384.003,94.419c-5.891,0-10.667,4.775-10.667,10.667v6.402c0,5.891,4.775,10.667,10.667,10.667
		c5.889,0,10.667-4.775,10.667-10.667v-6.402C394.669,99.194,389.893,94.419,384.003,94.419z"/>
</g>
</svg>